<?xml version="1.0" standalone="no"?>
<svg version="1.1" id="Layer_1" xmlns="http://www.w3.org/2000/svg" xmlns:xlink="http://www.w3.org/1999/xlink" x="0px" y="0px" width="595.279px" height="595.281px" viewBox="0 0 595.279 595.281" enable-background="new 0 0 595.279 595.281" xml:space="preserve">
<path id="color_x5F_2" fill="#fff" d="M339.129,292.704c-0.055,0.021-0.106,0.044-0.16,0.066l2.396-1.798l0.104-0.146
	c-0.245,0.659-0.478,1.323-0.695,1.991C340.369,292.564,339.729,292.462,339.129,292.704z M353.909,452.24c0-3.803,0-7.605,0-11.408
	c0-0.255,0.251-0.473,0.603-0.641c-5.192,1.396-8.677,6.333-13.984,8.759C344.986,450.049,349.447,451.146,353.909,452.24z
	 M381.157,441.261c-0.184,0.449-0.334,0.782-0.406,0.937c0.009,0.009,0.019,0.018,0.024,0.026
	C380.92,441.905,381.046,441.584,381.157,441.261z M383.355,442.543c-0.438,0.662-2.31,0.971-2.669,0.385
	c-0.249,0.378-0.747,0.753-1.331,0.86c-7.577,1.388-12.28-2.168-19.388-3.692c-1.24-0.266-2.372-0.322-3.438-0.244
	c0.17,0.035,0.276,0.102,0.276,0.203c0,3.972,0,7.945,0,11.917c0,0.322-0.396,0.584-0.892,0.76
	c7.554,1.848,15.108,3.685,22.668,5.509c6.036,1.456,12.225,3.486,18.381,4.401c10.781-0.123,21.563-0.241,32.346-0.348
	c-0.672-8.08-1.918-16.117-2.051-24.233C412.685,440.14,397.926,441.314,383.355,442.543z M376.129,460.101l9.266,2.673
	c0.302-0.003,0.604-0.007,0.904-0.01c-3.172-0.833-6.329-1.733-9.447-2.487C376.609,460.219,376.369,460.161,376.129,460.101z
	 M463.282,406.96c-0.428-3.501-2.469-20.127-4.582-36.124c-1.242-7.082-2.655-14.135-4.197-21.161
	c-1.493-6.8-2.867-13.688-4.729-20.399c-1.166-4.204-2.509-8.721-5.199-12.244c-5.737-7.516-14.757-8.864-23.362-11.125
	c-8.669-2.277-17.87-5.088-24.744-11.063c-7.023,10.665-19.642,14.738-28.316,23.852c-0.864,0.908-3.664,0.508-2.412-0.808
	c0.082-0.086,0.172-0.166,0.255-0.251c-0.286-5.737-4.833-10.798-9.356-14.121c-0.098,0.073-0.207,0.145-0.33,0.21
	c0.007,20.278,0.286,40.578-0.26,60.851c-0.515,19.032-1.452,38.07-1.235,57.114c5.214-1.741,10.562-3.178,15.929-4.516
	c0.355-0.153,0.769-0.261,1.142-0.283c6.116-1.509,12.248-2.915,18.229-4.529c10.078-2.719,20.968-7.721,31.826-9.625
	c-0.008-0.014-0.021-0.025-0.021-0.043c-1.14-18.26-5.943-36.016-7.563-54.221c-0.063-0.731,2.855-1.257,2.898-0.776
	c1.618,18.205,6.423,35.961,7.562,54.222c0.01,0.157-0.116,0.302-0.313,0.43c3.979-0.508,7.946-0.543,11.859,0.163
	c1.563,0.282-1.061,1.52-1.826,1.382c-9.923-1.791-20.019,2.166-29.306,5.229c-3.803,1.255-7.635,2.403-11.484,3.488
	c3.683,2.393,4.979,8.857,5.641,12.679c0.763,4.417,1.757,10.887-1.299,14.755c17.568-1.495,35.333-3.307,52.35-7.45
	c3.779-0.92,10.233-1.638,11.393-6.069C463.479,420.206,463.658,413.563,463.282,406.96z M296.43,434.43
	c-0.941,0.432-1.9,0.816-2.883,1.128C294.497,435.401,295.468,434.999,296.43,434.43z M394.726,440.327
	c0.055-0.089,0.124-0.181,0.229-0.28c3.354-3.179,2.326-9.973,1.53-13.982c-0.64-3.223-1.732-10.411-5.201-11.984
	c-0.38-0.172-0.552-0.393-0.588-0.622c-1.315,0.356-2.635,0.71-3.956,1.053c-4.333,1.123-8.748,2.161-13.17,3.241
	c6.526,5.323,13.361,14.834,10.333,23.475C387.495,440.922,391.105,440.628,394.726,440.327z M369.514,295.337
	c3.81-2.235,7.522-4.62,11.088-7.23L369.514,295.337z M349.245,299.079c-1.688-3.312-2.335-7.542-2.556-11.249
	c-0.065-0.094-0.107-0.207-0.107-0.347c-0.003-0.643-0.013-1.285-0.018-1.927c-3.205,6.343-4.962,13.265-5.596,20.343
	C342.671,302.305,345.435,299.311,349.245,299.079z M344.161,425.841c2.533-1.159,5.124-2.193,7.753-3.143
	c-0.227-19.123,0.743-38.235,1.234-57.348c0.526-20.513,0.258-41.05,0.258-61.567c0-0.047,0.013-0.092,0.031-0.136
	c-1.141-0.62-2.093-1.477-2.889-2.501c-5.237-1.394-7.535,5.408-8.345,9.532c-0.11,0.569-1.007,0.964-1.776,1.025
	c-0.72,0.679-2.656,0.864-2.643-0.205c0.08-5.863,0.878-11.693,2.537-17.26c-9.575,3.839-18.794,8.537-28.431,12.224
	c-5.754,2.201-10.727,5.138-14.215,9.81c-0.518,0.74-1.02,1.495-1.496,2.268c-0.463,0.801-0.891,1.642-1.275,2.535
	c-3.896,9.046-5.663,19.31-7.968,28.863c-2.75,11.396-5.458,22.805-7.93,34.264c-1,4.637-2.004,9.282-2.792,13.962
	c-0.143,0.85-1.334,5.286-0.621,5.915c0.227,0.199,0.244,0.417,0.133,0.623c3.579,0.549,7.087,1.484,10.481,2.988
	c0.201,0.09-1.98,1.29-2.739,0.954c-14.037-6.219-30.089-2.497-45.005-1.873l-0.057,0.114c0.003,0.962,0.007,1.924,0.009,2.886
	c4.087,3.442,7.021,8.688,7.982,13.951c0.042,0.233,0.088,0.486,0.133,0.75c0.119,0.004,0.236,0.017,0.347,0.05
	c13.187,4.045,26.519,7.667,39.901,11.109c3.239,0.17,6.462-0.364,9.448-2.103c3.844-2.237,6.802-5.381,9.454-8.901
	c0.058-0.076,0.155-0.148,0.278-0.216c0.045-0.067,0.07-0.108,0.07-0.108l0.01,0.069c0.023-0.013,0.048-0.024,0.074-0.036
	c0.121-27.109,0.439-54.218,0.446-81.327c0.001-0.827,2.898-1.243,2.898-0.776c-0.01,32.938-0.495,65.875-0.504,98.814
	c0,0.049-0.013,0.096-0.031,0.143c5.993,1.476,11.985,2.941,17.974,4.409c-0.374-1.248-0.006-2.713,0.716-4.18l-0.249-0.449
	l1.081-1.017c1.353-2.141,3.172-4.118,4.17-5.21c2.998-3.28,6.744-7.227,11.143-8.685
	C343.869,425.99,343.997,425.917,344.161,425.841z M366.57,297.036l-9.426,4.712c0.313-0.079,0.623-0.12,0.874-0.093
	C360.893,300.156,363.75,298.625,366.57,297.036z M272.494,404.31c-0.237-1.606,0.543-4.341,0.696-5.252
	c0.185-1.098,0.382-2.192,0.585-3.288l-1.743,7.201l-13.494,1.349C263.227,404.012,267.907,403.891,272.494,404.31z
	 M360.881,421.092l9.72-2.43c-0.058-0.045-0.114-0.088-0.171-0.134C367.229,419.33,364.039,420.168,360.881,421.092z
	 M345.235,426.769c-0.316,0.146-0.671,0.205-0.985,0.203c-1.528,0.524-3.052,1.555-4.484,2.799l9.152-4.576
	C347.679,425.698,346.448,426.215,345.235,426.769z M368.666,315.135c8.564-7.374,19.744-11.706,25.724-21.692
	c-2.271-2.984-4.878-5.772-6.586-9.119c-8.73,7.245-18.617,12.768-28.651,17.992C363.327,305.343,367.636,309.951,368.666,315.135z"></path>
<path id="color_x5F_1" d="M347.986,243.005c-1.604,0.514-3.146,0.19-4.784,0.103c-0.23-0.013-0.845-0.049-0.877-0.4
	c-0.392-4.362,1.426-8.481,4.135-11.819c0.564-0.697,3.473-0.946,2.688,0.021c-2.457,3.029-4.184,6.755-3.931,10.714
	c0.813,0.112,1.661,0.247,2.402,0.009C349.34,241.083,349.677,242.464,347.986,243.005z M335.684,225.375
	c0.693,0.049,1.513-0.232,1.9-0.837c1.106-1.724,1.607-3.74,2.105-5.705c0.313-1.234-2.632-0.824-2.916,0.296
	c-0.459,1.809-0.903,3.631-1.923,5.219C334.465,224.952,335.18,225.339,335.684,225.375z M367.419,229.347
	c0.692,0.049,1.513-0.231,1.899-0.837c1.107-1.724,1.607-3.74,2.106-5.705c0.313-1.232-2.631-0.824-2.916,0.296
	c-0.459,1.809-0.903,3.631-1.923,5.219C366.198,228.923,366.915,229.313,367.419,229.347z M366.295,210.542c3.021,0,6.045,0,9.065,0
	c1.607,0,2.266-1.991,0.293-1.991c-3.021,0-6.045,0-9.065,0C364.979,208.551,364.322,210.542,366.295,210.542z M347.272,206.173
	c-2.995-0.401-5.99-0.802-8.984-1.202c-1.35-0.18-2.988,1.729-1.035,1.99c2.996,0.4,5.989,0.8,8.984,1.202
	C347.587,208.344,349.226,206.436,347.272,206.173z M351.895,250.156c0.015-0.84,1.918-1.321,2.632-1.074
	c0.477-0.091,0.934-0.075,1.175,0.134c3.462,2.99,8.666-1.294,10.405-4.414c0.428-0.767,3.318-1.142,2.682,0.001
	c-0.061,0.108-0.14,0.217-0.205,0.326c0.209,0.085,0.336,0.231,0.308,0.459c-0.646,5.149-4.178,10.174-9.098,12.057
	c-1.649,0.631-3.891,0.929-5.444-0.114C351.997,255.954,351.851,252.709,351.895,250.156z M354.9,251.439
	c0.341,3.035,1.591,6.79,5.033,4.597c2.654-1.691,4.544-4.443,5.489-7.444C362.378,251.038,358.215,252.675,354.9,251.439z
	 M508.966,463.75c-11.105,0.002-22.212,0.099-33.316,0.188c-15.07,0.121-30.141,0.278-45.212,0.445
	c-0.239,0.027-0.456,0.029-0.626,0.007c-10.932,0.122-21.863,0.247-32.796,0.374c-0.279,0.113-0.571,0.17-0.832,0.132
	c-0.229-0.033-0.46-0.079-0.689-0.114c-40.837,0.473-81.674,0.92-122.508,0.948c-0.351,0.126-0.724,0.169-1.048,0.073
	c-0.078-0.023-0.155-0.047-0.233-0.07c-0.498,0-0.997,0.003-1.495,0.003c-0.8,0-0.977-0.32-0.827-0.699
	c-38.344-11.42-76.586-23.217-114.821-34.992c-0.843-0.26-0.804-0.829-0.394-1.311c-0.451,0.011-0.901,0.025-1.352,0.031
	c-0.013,2.673-0.014,5.346-0.013,8.021c12.83,4.807,24.473,12.579,37.725,16.281c1.362,0.381-0.153,1.387-1.221,1.563
	c-0.23,0.125-0.508,0.204-0.824,0.205c-16.133,0.04-32.243,1.069-48.375,1.122c-0.113,0.015-0.218,0.019-0.307,0.011
	c-0.043-0.004-0.089-0.017-0.133-0.022c-0.113-0.013-0.229-0.037-0.342-0.056c-2.548-0.409-5.412-2.131-7.708-3.038
	c-5.792-2.289-11.582-4.58-17.387-6.833c-6.068-2.355-12.143-4.706-18.272-6.898c-2.325-0.832-4.654-1.668-7.019-2.386
	c-0.709-0.215-1.421-0.444-2.147-0.597c-1.141-0.239-0.665,0.069-0.067-0.333c-0.006-0.003-0.013-0.006-0.019-0.009
	c-1.081,0.621-3.049,0.01-2.055-1.289c0.777-1.015,2.36-0.947,3.971-0.55c13.077-0.206,26.033-2.642,39.108-2.95
	c-0.455-6.02-1.384-12.045-2.016-18.008c-0.864-8.153-1.667-16.336-2.073-24.534c-0.285,0.089-0.565,0.128-0.796,0.085
	c-9.58-1.817-19.009-4.683-28.26-7.772c-0.858,0.365-2.099,0.421-2.099-0.028c0-0.327,0-0.654,0-0.981c0-0.062,0-0.123,0-0.184
	c0-37.502,0-75.004,0-112.506c-0.227-0.217-0.327-0.537-0.182-0.97c0.324-0.968,1.761-1.114,2.598-1.216
	c8.895-1.083,18.09-0.796,27.03-0.943c15.631-0.257,31.264-0.38,46.896-0.479c14.908-0.095,29.816-0.157,44.725-0.229
	c4.888-0.023,9.775-0.044,14.662-0.086c1.439-0.012,2.879-0.023,4.318-0.049c0.688-0.013,2.146-0.397,0.779,0.149
	c-0.006,0.023-0.012,0.046-0.018,0.069c0.57-0.292,1.302-0.378,1.778-0.026c0.002,0.002,0.004,0.003,0.006,0.005
	c0.072,0.053,0.124,0.113,0.172,0.175c0.837-0.292,1.896-0.307,1.896,0.108c0.014,47.387,1.102,94.769,1.258,142.154
	c6.553-0.141,13.351-0.972,20.133-1.418c4.689-0.309,9.369-0.429,13.956-0.01c-0.237-1.606,0.543-4.341,0.696-5.252
	c0.185-1.098,0.382-2.192,0.585-3.288c0.701-3.778,1.496-7.542,2.311-11.297c2.692-12.403,5.617-24.756,8.614-37.089
	c2.402-9.886,3.857-21.962,9.583-30.511c3.567-5.328,8.649-8.977,14.621-11.26c10.187-3.896,19.946-8.781,30.063-12.844
	c0.054-0.021,0.105-0.044,0.16-0.066c0.601-0.241,1.24-0.139,1.646,0.113c0.219-0.668,0.45-1.332,0.695-1.991
	c1.191-3.21,2.688-6.313,4.536-9.258c0.102-0.162,0.285-0.301,0.51-0.412c-0.061-3.839-0.136-7.679-0.155-11.521
	c-7.943-0.754-16.421-3.123-21.646-9.559c-3.783-4.66-5.534-10.432-5.931-16.333c-10.242,1.72-10.497-12.467-6.045-20.322
	c-0.29-1.135-0.454-2.252-0.461-3.259c-0.024-3.873,2.22-6.135,5.351-7.481c-0.12-11.303,3.093-23.746,12.021-31.188
	c-0.154-0.435-0.363-0.995-0.635-1.68c-1.734-2.596-3.097-5.585-3.905-8.651c-0.823-2.05-1.077-4.199-0.82-6.325
	c0.082-6.338,3.159-12.014,10.942-14.006c7.755-1.985,17.236-1.393,24.519,2.046c4.601,2.173,8.655,5.334,11.449,9.64
	c2.515,3.872,4.555,7.996,7.378,11.62h1.454c0,0,0.104,0.066,0.251,0.162c8.481-1.919,18.2,2.771,24.231,8.381
	c12.391,11.526,8.825,26.546,6.173,41.49c8.646,2.261,11.024,12.724,8.207,21.585c-3.134,9.855-12.022,16.814-22.482,14.781
	c-2.249,1.849-4.731,3.386-7.354,4.556c0,5.587,0,11.173,0,16.76c0.475-0.048,0.882,0.022,0.994,0.297
	c1.463,3.576,4.063,6.439,6.43,9.442c0.247,0.006,0.455,0.061,0.573,0.186c8.525,8.983,21.474,11.594,33.02,14.47
	c8.074,2.011,15.628,5.459,19.396,13.337c2.696,5.642,3.939,11.789,5.342,17.846c1.768,7.638,3.482,15.29,4.991,22.984
	c3.017,15.39,4.994,30.753,6.311,46.37c0.408,4.852,0.237,9.914-0.497,14.729c-0.361,2.37-0.512,5.785-2.506,7.467
	c-3.278,2.767-8.325,3.793-12.37,4.745c-6.781,1.596-13.651,2.861-20.569,3.909c0.167,8.246,1.454,16.412,2.101,24.626
	c25.917-0.251,51.833-0.432,77.749-0.438C511.979,461.827,510.232,463.749,508.966,463.75z M429.311,462.294
	c-0.672-8.08-1.918-16.117-2.051-24.233c-14.575,2.079-29.334,3.252-43.904,4.481c-0.438,0.662-2.31,0.971-2.669,0.385
	c-0.249,0.378-0.747,0.753-1.331,0.86c-7.577,1.388-12.28-2.168-19.388-3.692c-1.24-0.266-2.372-0.322-3.438-0.244
	c0.17,0.035,0.276,0.102,0.276,0.203c0,3.972,0,7.945,0,11.917c0,0.322-0.396,0.584-0.892,0.76
	c7.554,1.848,15.108,3.685,22.668,5.508c6.036,1.457,12.225,3.487,18.381,4.402C407.748,462.519,418.528,462.401,429.311,462.294z
	 M238.442,424.769c1.54,1.5,3.238,4.132,5.302,4.894c-0.03-0.012-0.101-4.537-0.243-5.163c-0.899-3.956-2.533-7.726-5.072-10.834
	c0,0.686,0.006,1.372,0.006,2.057c0,0.854-2.208,1.332-2.769,0.982c-0.479,0.293-1.084,0.473-1.539,0.353
	c-6.475-1.706-12.958-3.381-19.445-5.043c-0.025,0.275-0.244,0.581-0.759,0.86c-2.863,1.553-14.756,15.089-7.636,16.194
	c0.6,0.094,0.849,0.328,0.872,0.603c-0.027-1.064,0.678-2.349,1.091-3.087c2.36-4.216,5.724-8.631,9.422-11.774
	c0.804-0.683,3.677-0.498,2.362,0.619c-2.676,2.274-4.981,5.255-6.998,8.106c-1,1.414-2.215,2.981-2.738,4.658
	c-0.597,1.918,0.462,1.258,1.912,0.633c0.038-0.018,0.077-0.027,0.116-0.041c-0.035-0.132,0.049-0.3,0.325-0.511
	C219.271,423.2,231.047,417.567,238.442,424.769z M220.713,425.257c4.46-0.025,8.914-0.264,13.372-0.36
	C229.898,422.534,225.114,423.21,220.713,425.257z M206.095,409.82c-0.873-0.222-1.746-0.445-2.618-0.668
	c-1.502,0.458-3.092,1.06-3.831,2.477c-0.714,1.369-1.194,2.841-1.84,4.243c-1.118,2.426-2.984,6.945-0.953,9.079
	c0.134,0.049,0.199,0.12,0.214,0.206c0.254,0.217,0.567,0.396,0.926,0.546C197.995,420.463,202.944,412.722,206.095,409.82z
	 M201.155,427.139c-0.034-5.174,8.126-13.773,11.43-15.663c-1.389-0.354-2.777-0.709-4.167-1.063
	C205.443,413.339,199.364,422.958,201.155,427.139z M289.85,436.424c5.398,1.377,10.804,2.725,16.212,4.06
	c0.002-4.446,0.025-8.894,0.043-13.341c-2.906,3.221-6.149,5.67-9.675,7.287c-0.941,0.432-1.9,0.816-2.883,1.128
	C292.343,435.941,291.109,436.227,289.85,436.424z M329.852,445.044c0.414-0.776,1.014-1.501,1.423-2.004
	c3.07-3.774,6.946-6.665,10.432-10.014c0.556-0.533,3.376-0.806,2.651-0.109c-2.674,2.569-5.613,4.838-8.192,7.514
	c-1.932,2.001-6.79,7.354-0.704,6.489c0.458-0.065,0.74-0.042,0.901,0.031c2.246-5.59,9.556-9.184,13.793-12.747
	c0.771-0.647,3.651-0.534,2.349,0.563c-4.262,3.582-12.111,7.256-13.637,13.113c0.085-0.049,0.181-0.099,0.288-0.146
	c5.813-2.563,9.601-9.197,16.38-9.724c8.657-0.67,15.436,5.658,24.185,4.055c0.56-0.103,0.881-0.026,1.031,0.135
	c0.009,0.009,0.019,0.018,0.024,0.026c0.145-0.318,0.271-0.641,0.382-0.963c2.895-8.313-4.377-17.663-10.558-22.599
	c-0.058-0.045-0.114-0.088-0.171-0.133c-3.199,0.8-6.391,1.64-9.549,2.563c-4.066,1.189-8.072,2.527-11.963,4.104
	c-1.238,0.502-2.47,1.02-3.683,1.574c-0.316,0.146-0.671,0.205-0.985,0.203c-1.528,0.524-3.052,1.556-4.484,2.799
	c-2.204,1.914-4.196,4.319-5.663,6.121C332.681,437.637,328.734,442.196,329.852,445.044z M359.151,302.317
	c4.176,3.026,8.484,7.634,9.515,12.818c8.564-7.374,19.744-11.706,25.724-21.692c-2.271-2.984-4.878-5.772-6.586-9.119
	C379.072,291.568,369.186,297.092,359.151,302.317z M390.697,413.458c-1.315,0.356-2.635,0.71-3.956,1.053
	c-4.333,1.123-8.748,2.161-13.17,3.241c6.526,5.323,13.361,14.834,10.333,23.475c3.591-0.304,7.201-0.598,10.821-0.899
	c0.055-0.089,0.124-0.181,0.229-0.28c3.354-3.179,2.326-9.973,1.53-13.982c-0.64-3.223-1.732-10.411-5.201-11.984
	C390.905,413.907,390.733,413.686,390.697,413.458z M354.511,440.191c-5.192,1.396-8.677,6.333-13.984,8.759
	c4.46,1.1,8.921,2.196,13.383,3.289c0-3.802,0-7.604,0-11.407C353.909,440.577,354.16,440.359,354.511,440.191z M335.956,447.827
	c0.026,0.007,0.056,0.014,0.083,0.021c0.009-0.031,0.019-0.062,0.026-0.092C336.031,447.778,335.992,447.802,335.956,447.827z
	 M458.7,370.836c-1.242-7.082-2.655-14.135-4.197-21.161c-1.493-6.8-2.867-13.688-4.729-20.399
	c-1.166-4.204-2.509-8.721-5.199-12.244c-5.737-7.516-14.757-8.864-23.362-11.125c-8.669-2.277-17.87-5.088-24.744-11.063
	c-7.023,10.665-19.642,14.738-28.316,23.852c-0.864,0.908-3.664,0.508-2.412-0.808c0.082-0.086,0.172-0.166,0.255-0.251
	c-0.286-5.737-4.833-10.798-9.356-14.121c-0.098,0.073-0.207,0.145-0.33,0.21c0.007,20.278,0.286,40.578-0.26,60.851
	c-0.515,19.032-1.452,38.07-1.235,57.114c5.214-1.741,10.562-3.178,15.929-4.516c0.355-0.153,0.769-0.261,1.142-0.283
	c6.116-1.509,12.248-2.915,18.229-4.529c10.078-2.719,20.968-7.721,31.826-9.625c-0.008-0.014-0.021-0.025-0.021-0.043
	c-1.14-18.26-5.943-36.016-7.563-54.221c-0.063-0.731,2.855-1.257,2.898-0.776c1.618,18.205,6.423,35.961,7.562,54.222
	c0.01,0.157-0.116,0.302-0.313,0.43c3.979-0.508,7.946-0.543,11.859,0.163c1.563,0.282-1.061,1.52-1.826,1.382
	c-9.923-1.791-20.019,2.166-29.306,5.229c-3.803,1.255-7.635,2.403-11.484,3.488c3.683,2.393,4.979,8.857,5.641,12.679
	c0.763,4.417,1.757,10.887-1.299,14.755c17.568-1.495,35.333-3.307,52.35-7.45c3.779-0.92,10.233-1.638,11.393-6.069
	c1.651-6.318,1.831-12.961,1.455-19.563c-0.247-4.369-0.736-8.72-1.213-12.951C461.197,386.249,460.05,378.525,458.7,370.836z
	 M408.155,225.332c-0.101,0.059-0.213,0.117-0.351,0.175c-10.084,4.258-11.5,16.811-10.196,26.355
	c0.145,1.052-2.771,1.713-2.897,0.776c-1.388-10.156,0.499-21.751,9.725-27.131c-0.36,0.088-0.692,0.12-0.888,0.05
	c-6.898-2.452-12.215,9.297-13.604,14.329c-0.751,2.721-1.214,6.036-0.898,9.146c0.004,0.036,0.014,0.066,0.014,0.104
	c0,0.024,0,0.048,0,0.072c0.449,4.052,2.25,7.723,6.516,9.222c0.388,0.136,0.769,0.254,1.146,0.361
	c0.834-0.119,1.639-0.056,1.311,0.316C417.604,263.104,423.938,228.587,408.155,225.332z M370.197,214.442
	c0.365-0.283,0.837-0.484,1.285-0.461c4.651,0.245,13.694,0.243,18.025,3.766c0.543-3.004,1.369-5.883,1.946-7.907
	c0.005-0.017,0.009-0.034,0.014-0.051c0.118-2.449,0.212-5.049,0.202-7.013c-0.204-0.564-0.461-1.125-0.825-1.677
	c-0.978-1.481-5.219-6.481-7.632-4.588c0.375,0.156,0.498,0.457,0.021,0.919c-1.386,1.339-3.066,2.347-4.923,3.097
	c-0.249,0.203-0.507,0.407-0.779,0.611c-2.8,2.1-8.292,1.75-13.736,1.353c-1.264-0.04-2.482-0.11-3.617-0.2
	c-0.396-0.031-0.796-0.068-1.198-0.104c-0.663-0.027-1.318-0.047-1.947-0.047c-1.082,0-2.345-0.252-3.705-0.677
	c-6.29-1.077-12.654-3.217-17.011-7.69c-2.993,5.388-5.818,11.073-8.175,16.952c1.946-0.109,3.753-0.146,5.192-0.222
	c0.658-0.035,1.022,0.175,1.163,0.471c6.458,0.098,15.959,2.491,13.915,10.797c-0.049,0.194-0.117,0.375-0.174,0.565
	c2.498,0,4.997,0,7.497,0C356.848,216.163,364.352,214.486,370.197,214.442z M321.673,221.192c-0.361,0.036-0.691-0.001-0.903-0.155
	c-1.822-1.324-3.555-0.346-4.927,1.766c0.724,2.548,1.763,5.258,3.915,6.844C320.25,226.81,320.889,223.988,321.673,221.192z
	 M322.421,231.008c2.96,1.05,6.384,1.1,9.399,0.78c5.593-0.591,13.068-3.893,13.763-10.36c0.782-7.313-7.477-8.642-13.027-8.366
	c-0.629,0.031-0.992-0.159-1.146-0.434c-1.212,0.036-2.606,0.071-4.064,0.16C325.096,218.727,323.355,224.836,322.421,231.008z
	 M359,226.134c2.29,5.97,8.926,9.016,15.002,9.198c4.009,0.121,9.354,0.219,11.985-3.437c1.309-1.815,2.736-4.778,3.011-7.395
	c-0.043-0.596-0.047-1.216-0.03-1.845c-0.021-0.135-0.042-0.271-0.073-0.401c-1.487-6.135-10.897-6.033-16.671-6.16
	c-0.361,0.271-0.818,0.46-1.254,0.438C365.275,216.25,356.006,218.327,359,226.134z M382.354,174.875
	c8.925,3.327,16.602,9.536,19.882,18.78c3.505,9.874,2.495,20.298-0.717,30.1c1.121-0.104,2.271-0.016,3.44,0.285
	c0.316-0.15,0.639-0.26,0.865-0.276c0.758-0.053,1.479-0.056,2.174-0.015c2.146-11.674,5.864-25.411-2.158-35.69
	C401.181,182.089,391.011,174.194,382.354,174.875z M315.258,220.193c1.97-1.756,4.374-2.384,7.015-1.025
	c0.624-2.054,1.315-4.091,2.065-6.108C319.398,213.691,314.783,215.368,315.258,220.193z M318.713,242.215
	c-0.02-0.671-0.026-1.343-0.014-2.014c0.054-2.62,0.285-5.237,0.642-7.844c-0.891-0.43-1.736-0.963-2.519-1.641
	c-1.095-0.949-2.048-2.313-2.797-3.827C311.956,233.644,312.468,243.13,318.713,242.215z M348.296,267.55
	c0.716,0.057,0.968,0.378,0.934,0.757c0.012,0.049,0.024,0.097,0.024,0.153c0.012,5.045,0.14,10.089,0.197,15.134
	c0.021,0.063,0.031,0.129,0.031,0.204c0.005,4.53,0.487,11.726,3.588,15.972c0.06,0.08,0.121,0.156,0.182,0.233
	c0.732,0.947,1.607,1.729,2.647,2.287c0.301-0.214,0.776-0.423,1.245-0.543c0.313-0.079,0.623-0.12,0.874-0.092
	c2.874-1.5,5.73-3.031,8.552-4.621c0.987-0.556,1.968-1.125,2.943-1.698c3.81-2.235,7.522-4.62,11.088-7.23
	c1.939-1.42,3.846-2.89,5.683-4.464c-0.092-0.125-0.147-0.279-0.147-0.471c0-5.652,0-11.305,0-16.958
	c-6.098,1.993-12.729,1.968-18.855-0.928c-0.425-0.201-0.215-0.504,0.224-0.769c-0.223-1.365-0.796-3.275-2.079-3.758
	c-0.114-0.043-0.232-0.078-0.353-0.105c-0.042-0.006-0.104-0.015-0.156-0.021c-0.04,0.02-0.077,0.038-0.104,0.052
	c-0.058,0.037-0.115,0.074-0.171,0.114c-0.037,0.026-0.179,0.143-0.2,0.157c-0.567,0.519-1.143,1.283-0.823,2.08
	c0.418,1.04,1.987,1.029,2.933,0.985c0.306-0.014,1.176,0.08,0.71,0.569c-0.455,0.478-1.299,0.688-1.934,0.717
	c-0.504,0.023-1.014,0.032-1.517-0.004c-1.106-0.079-3.128-0.424-3.173-1.899c-0.037-1.206,0.924-2.252,1.876-2.868
	c1.417-0.918,3.541-1.624,5.206-0.996c1.756,0.662,2.418,2.523,2.689,4.238c0.027,0.172-0.083,0.335-0.269,0.481
	c5.348,2.373,10.898,2.422,15.996,0.642c0-5.082,0-10.165,0-15.247c-1.021-7.121,1.994-15.998,6.98-21.306
	c-0.051,0.011-0.102,0.022-0.15,0.031c-0.458,0.468-1.953,0.953-2.58,0.611c-1.02,2.534-2.479,4.774-4.978,6.312
	c-3.796,2.334-9.14,2.476-13.431,2.021c-6.839-0.723-16.096-4.938-16.383-12.995c-0.015-0.389,0.001-0.758,0.029-1.119
	c-0.527,0.252-1.13,0.363-1.702,0.363c-2.038,0-4.076,0-6.115,0c-2.689,6.593-10.412,10.138-17.267,10.344
	c-2.778,0.084-5.723,0.086-8.443-0.582c-0.113,0.96-0.206,1.922-0.277,2.884c-0.533,7.193,0.028,15.263,4.521,21.254
	C331.596,264.479,339.891,266.88,348.296,267.55z M364.84,260.631C364.742,260.642,364.622,260.664,364.84,260.631L364.84,260.631z
	 M340.969,305.897c1.701-3.593,4.466-6.586,8.275-6.819c-1.688-3.312-2.335-7.542-2.556-11.249
	c-0.065-0.094-0.107-0.207-0.107-0.347c-0.003-0.643-0.013-1.285-0.018-1.927C343.359,291.897,341.603,298.819,340.969,305.897z
	 M238.408,406.774c0,0.037,0,0.074,0,0.111c0.003,0.962,0.007,1.924,0.009,2.886c4.087,3.442,7.021,8.688,7.982,13.951
	c0.042,0.233,0.088,0.486,0.133,0.75c0.119,0.004,0.236,0.016,0.347,0.05c13.187,4.045,26.519,7.667,39.901,11.109
	c3.239,0.17,6.462-0.364,9.448-2.103c3.844-2.237,6.802-5.381,9.454-8.901c0.058-0.076,0.155-0.148,0.278-0.216
	c0.023-0.014,0.054-0.026,0.08-0.039c0.023-0.013,0.048-0.024,0.074-0.036c0.121-27.109,0.439-54.218,0.446-81.327
	c0.001-0.827,2.898-1.243,2.898-0.776c-0.01,32.938-0.495,65.875-0.504,98.814c0,0.049-0.013,0.096-0.031,0.143
	c5.993,1.476,11.985,2.941,17.974,4.409c-0.374-1.248-0.006-2.713,0.716-4.18c0.242-0.492,0.526-0.982,0.832-1.466
	c1.353-2.141,3.172-4.118,4.17-5.21c2.998-3.28,6.744-7.227,11.143-8.685c0.11-0.071,0.238-0.144,0.403-0.219
	c2.532-1.159,5.123-2.193,7.752-3.144c-0.227-19.122,0.743-38.234,1.234-57.347c0.526-20.513,0.258-41.05,0.258-61.567
	c0-0.047,0.013-0.092,0.031-0.136c-1.141-0.62-2.093-1.477-2.889-2.501c-5.237-1.394-7.535,5.408-8.344,9.532
	c-0.111,0.569-1.008,0.964-1.777,1.025c-0.72,0.679-2.656,0.864-2.643-0.205c0.08-5.863,0.878-11.693,2.537-17.26
	c-9.575,3.839-18.794,8.538-28.431,12.224c-5.754,2.201-10.727,5.138-14.215,9.81c-0.534,0.714-1.035,1.467-1.496,2.268
	c-0.463,0.801-0.892,1.642-1.274,2.535c-3.896,9.046-5.664,19.31-7.969,28.863c-2.75,11.396-5.458,22.805-7.93,34.264
	c-1,4.637-2.004,9.282-2.792,13.962c-0.143,0.85-1.334,5.286-0.621,5.915c0.227,0.199,0.244,0.417,0.133,0.623
	c3.579,0.549,7.087,1.484,10.481,2.988c0.201,0.089-1.98,1.29-2.739,0.954c-14.037-6.219-30.089-2.497-45.005-1.873
	C238.446,406.772,238.427,406.773,238.408,406.774z M123.555,386.525c-0.101-2.427-0.172-4.854-0.188-7.283
	c-0.036-5.302-0.162-13.501,1.357-20.771c-0.56,0.735-2.769,1.029-2.769,0.43c0-15.145-0.001-30.29-0.001-45.435
	c0-0.803,1.95-1.272,2.649-1.035c1.972-0.479,4.861-0.146,6.007-0.16c6.306-0.077,12.614-0.007,18.92,0.07
	c7.108,0.087,14.215,0.207,21.322,0.313c2.343,0.035,4.686,0.073,7.029,0.091c0.63,0.004,3.019-0.083,2.677,0.03
	c-0.01,0.022-0.02,0.045-0.029,0.068c0.49-0.156,1.025-0.159,1.405,0.11c0.005,0.004,0.011,0.008,0.016,0.012
	c0.394,0.279,0.444,0.606,0.327,0.917c0.042,19.551,0.976,39.09,1.004,58.641c0.001,0.696-1.46,1.14-2.307,1.092
	c-0.155,0.021-0.312,0.023-0.464-0.004c-4.262-0.786-8.502-1.68-12.744-2.565c-2.069-0.434-4.136-0.873-6.211-1.276
	c-0.541-0.104-2.648-0.382-2.99-0.542c-2.201,7.634-3.38,15.569-4.183,23.455c-0.072,0.705-0.124,1.411-0.189,2.116
	c0.473-0.278,1.057-0.443,1.499-0.325c16.212,4.345,32.484,8.462,48.749,12.602c0.542-0.092,0.925,0.037,1.11,0.282
	c10.002,2.547,20.002,5.105,29.984,7.733c-0.002-2.747-0.017-5.493-0.025-8.239c-0.032,0-0.063,0.001-0.095,0.002
	c-0.63,0.006-0.396-0.223,0.093-0.472c-0.157-47.064-1.229-94.123-1.255-141.188c-0.325,0.084-0.645,0.13-0.997,0.14
	c-23.84,0.664-47.741,0.26-71.588,0.432c-15.147,0.11-30.296,0.229-45.441,0.532c-5.164,0.104-10.331,0.209-15.491,0.438
	c-1.625,0.072-3.253,0.142-4.874,0.285c-0.186,0.017-0.338,0.035-0.477,0.054c0,37.194,0,74.387,0,111.581
	C104.602,381.75,114.004,384.64,123.555,386.525z M124.85,314.737c0.186-0.084,0.504-0.287,0.703-0.715
	c-0.133,0.287-0.394,0.499-0.703,0.643C124.85,314.688,124.85,314.712,124.85,314.737z M139.032,342.938
	c0.38-0.139,0.78-0.193,1.091-0.094c11.227,3.628,23.337,4.43,34.921,6.458c0.082,0.003,0.159-0.002,0.241,0.002
	c0.302,0.016,0.434,0.082,0.454,0.174c1.191,0.532-0.283,2.023-1.481,1.813c-0.989-0.175-1.984-0.338-2.98-0.498
	c-6.351,1.268-9.833,9.57-11.664,15.046c-0.156,0.465-0.291,0.938-0.438,1.405c2.281-0.061,4.906,0.86,6.98,1.29
	c4.735,0.979,9.462,2.005,14.213,2.904c-0.081-18.746-0.931-37.481-0.987-56.229c-2.135,0.17-4.658-0.248-6.522-0.274
	c-6.207-0.089-12.413-0.195-18.62-0.281c-6.5-0.09-13.001-0.179-19.502-0.163c-2.416,0.005-4.835,0.007-7.25,0.092
	c-0.698,0.024-1.398,0.045-2.095,0.103c-0.261,0.021-0.435,0.046-0.543,0.066c0,14.365,0.001,28.729,0.001,43.095
	C126.652,349.801,130.579,343.066,139.032,342.938z M152.805,439.076c0,0.491,0,0.982,0.001,1.475
	c0.001,0.948-2.897,1.419-2.897,0.776c-0.001-1.126-0.003-2.253-0.004-3.379c-0.383-0.163-0.305-0.424-0.001-0.68
	c-0.022-17.493,0.029-35.051,2.631-52.387c1.596-10.631,4.543-29.746,16.095-34.497c-10.132-1.515-20.502-2.58-30.215-5.719
	c-0.31-0.101-0.485-0.236-0.563-0.39c-6.948,0.063-9.341,9.439-10.302,14.941c-1.639,9.384-1.492,19.058-0.99,28.539
	c0.855,16.174,4.217,32.396,4.337,48.575c0.007,0.945-2.893,1.424-2.897,0.775c-0.01-1.366-0.069-2.735-0.146-4.105
	c-11.382,0.229-22.673,2.101-34.029,2.752c5.872,2,11.673,4.212,17.46,6.44c6.641,2.558,13.262,5.165,19.88,7.78
	c2.624,1.037,7.618,3.584,9.611,3.772c-0.009,0.009-0.019,0.018-0.028,0.026c0.223,0.023,0.431,0.088,0.606,0.202
	c14.033-0.078,28.048-0.856,42.078-1.062C172.902,449.104,163.191,443.268,152.805,439.076z M193.645,424.937
	c-1.024-2.333-0.253-5.597,1.035-8.393c0.931-2.021,1.543-4.942,3.275-6.481c0.791-0.703,1.674-1.224,2.604-1.652
	c-15.52-3.949-31.042-7.888-46.51-12.032c-0.888,10.287-1.155,20.586-1.222,30.897c0.039-0.004,0.08-0.011,0.116-0.011
	C166.549,427.17,180.052,425.255,193.645,424.937z M385.394,462.774c0.302-0.003,0.604-0.007,0.904-0.01
	c-3.172-0.833-6.329-1.733-9.447-2.487c-0.241-0.058-0.48-0.116-0.723-0.176c-14.682-3.547-29.354-7.131-44.015-10.763
	c-28.49-7.06-57.219-13.759-85.317-22.302c0.016,1.654-0.375,3.261-1.891,3.981c-3.306,1.573-5.831-1.728-7.891-3.843
	c-0.31-0.318-0.627-0.607-0.948-0.881c-0.216,0.08-0.428,0.13-0.608,0.131c-5.313,0.028-10.617,0.377-15.929,0.405
	c-0.835,0.004-0.933-0.281-0.695-0.609c-1.346,0.758-2.64,1.627-3.851,2.556c-0.191,0.146-0.522,0.25-0.889,0.31
	c0.263,0.319,0.16,0.763-0.685,1.128c-1.468,0.633-4.296,1.945-5.771,0.615c-0.332-0.299-0.459-0.689-0.478-1.114
	c0,0.609-1.064,1.383-1.932,1.248c-0.396-0.063-0.75-0.146-1.083-0.242c-0.228,0.083-0.458,0.131-0.664,0.122
	c-2.888-0.129-4.452-1.255-5.108-2.933c-0.071,0.001-0.142,0-0.21-0.011c-1.567-0.224-2.699-0.752-3.487-1.486
	c-12.19,0.12-24.3,1.673-36.467,2.201c38.415,11.832,76.837,23.683,115.365,35.14l0,0c0.004,0.001,0.007,0.002,0.011,0.003
	c0.045,0.014,0.078,0.033,0.118,0.048c10.292-0.014,20.584-0.096,30.876-0.179C331.516,463.408,358.454,463.086,385.394,462.774z
	 M129.435,197.767c-7.025-11.485-6.395-27.943-0.171-39.684c5.608-10.581,15.604-17.246,26.809-20.879
	c17.679-5.734,36.927-6.713,55.377-7.442c17.268-0.683,38.478-1.377,53.16,9.394c16.59,12.169,18.283,35.757,6.621,51.896
	c-10.45,14.463-29.087,22.324-46.583,24.05c-0.356,8.616-1.205,18.444,5.671,24.083c1.53,0.451,3.071,0.878,4.627,1.271
	c1.701,0.43-0.674,2.002-1.731,1.735c-0.604-0.153-1.209-0.31-1.814-0.47c-0.533,0.179-1.083,0.268-1.38,0.104
	c-0.502-0.274-0.966-0.57-1.412-0.875c-6.899-1.995-13.664-4.674-19.336-9.152c-5.092-4.02-9.401-8.851-13.588-13.781
	c-12.814-0.026-25.909-0.334-38.415-3.35C146.694,212.118,135.369,207.468,129.435,197.767z M143.348,207.32
	c15.188,8.736,33.996,9.396,51.286,9.46c-0.778-0.922-1.555-1.845-2.333-2.766c-0.833-0.986,1.942-2.062,2.675-1.194
	c1.103,1.305,2.206,2.636,3.318,3.967c0.106,0,0.215,0,0.322,0c0.615,0,0.482,0.224,0.079,0.48
	c4.15,4.957,8.478,9.901,13.689,13.645c3.918,2.814,8.166,4.871,12.598,6.509c-4.254-5.953-3.489-14.514-3.209-22.097
	c-0.148,0.009-0.298,0.027-0.446,0.035c-1.463,0.08-0.442-0.645,0.479-1.016c0.02-0.63,0.034-1.253,0.039-1.866
	c0.008-0.869,2.902-1.291,2.897-0.776c-0.007,0.744-0.027,1.506-0.054,2.278c20.667-1.826,44.621-13.918,50.094-35.41
	c2.538-9.963,1.179-21.552-4.779-30.136c-5.41-7.795-13.729-12.534-22.811-14.862c-19.149-4.908-40.205-2.965-59.675-1.088
	c-19.423,1.873-44.62,4.786-54.86,24.104C123.659,173.564,125.538,197.077,143.348,207.32z M160.277,181.385
	c-1.366-2.478,2.774-3.901,4.413-4.402c0.195-0.06,0.435-0.083,0.673-0.064c0.17-0.292,0.471-0.546,0.715-0.665
	c0.639-0.311,1.472-0.317,1.973,0.235c1.065,1.175,2.703,3.248,1.676,4.919c-0.998,1.624-3.034,1.951-4.793,1.886
	c-0.912-0.034-1.85-0.213-2.702-0.539C161.54,182.492,160.654,182.069,160.277,181.385z M167.083,180.822
	c0.021-0.035,0.028-0.047,0.001-0.002C167.084,180.82,167.084,180.822,167.083,180.822z M163.08,179.977
	c-0.021,0.017-0.041,0.035-0.062,0.052c-0.016,0.018-0.032,0.038-0.048,0.057c-0.006,0.012-0.011,0.024-0.017,0.037
	c0.002,0.008,0.004,0.011,0.007,0.02c0.001,0.003,0.001,0.004,0.002,0.007c0.033,0.05,0.066,0.099,0.104,0.144
	c0.005,0.006,0.005,0.007,0.01,0.012c0.073,0.062,0.149,0.119,0.229,0.172c0.072,0.047,0.146,0.09,0.22,0.132
	c0.025,0.012,0.051,0.024,0.076,0.035c0.181,0.08,0.366,0.151,0.554,0.211c0.091,0.029,0.183,0.058,0.275,0.083
	c0.017,0.005,0.034,0.009,0.051,0.014c0.392,0.087,0.79,0.148,1.19,0.174c0.034,0.002,0.068,0.004,0.103,0.006
	c0.074,0,0.148,0,0.222-0.002c0.189-0.007,0.379-0.02,0.566-0.044c0.079-0.017,0.158-0.035,0.235-0.057
	c0.032-0.009,0.063-0.02,0.094-0.03c0.014-0.006,0.028-0.013,0.04-0.018c0.012-0.006,0.024-0.013,0.036-0.019
	c0.014-0.01,0.028-0.02,0.042-0.03l0,0c0.019-0.037,0.039-0.074,0.054-0.112c0.012-0.076,0.021-0.153,0.022-0.23
	c0-0.014,0.001-0.017,0.001-0.027c-0.03-0.21-0.083-0.418-0.161-0.617c-0.019-0.048-0.083-0.189-0.104-0.238
	c-0.041-0.078-0.081-0.156-0.126-0.232c-0.189-0.318-0.402-0.619-0.629-0.909c-0.242,0.218-0.558,0.376-0.829,0.459
	c-0.25,0.077-0.5,0.156-0.747,0.244c-0.022,0.008-0.031,0.011-0.048,0.017c-0.1,0.039-0.199,0.079-0.297,0.12
	c-0.182,0.077-0.362,0.157-0.538,0.247c-0.066,0.034-0.235,0.133-0.323,0.182C163.215,179.88,163.145,179.924,163.08,179.977z
	 M193.775,181.385c-1.365-2.478,2.774-3.901,4.413-4.402c0.195-0.06,0.434-0.083,0.672-0.065c0.17-0.292,0.471-0.545,0.715-0.664
	c0.639-0.311,1.472-0.317,1.973,0.235c1.066,1.175,2.703,3.248,1.676,4.919c-0.998,1.624-3.034,1.951-4.793,1.886
	c-0.912-0.034-1.85-0.213-2.702-0.539C195.037,182.492,194.152,182.069,193.775,181.385z M200.581,180.822
	c0.021-0.035,0.028-0.047,0.001-0.002C200.581,180.82,200.581,180.822,200.581,180.822z M196.578,179.977
	c-0.021,0.016-0.04,0.034-0.06,0.05c-0.017,0.019-0.033,0.039-0.049,0.059c-0.006,0.012-0.011,0.024-0.017,0.037
	c0.002,0.008,0.004,0.011,0.007,0.02c0.001,0.003,0.001,0.004,0.002,0.007c0.033,0.05,0.065,0.099,0.104,0.144
	c0.005,0.006,0.006,0.007,0.01,0.013c0.074,0.062,0.149,0.118,0.229,0.171c0.072,0.047,0.146,0.09,0.222,0.132
	c0.025,0.012,0.05,0.023,0.075,0.035c0.181,0.08,0.365,0.151,0.553,0.211c0.091,0.029,0.183,0.058,0.275,0.083
	c0.017,0.005,0.035,0.009,0.052,0.014c0.391,0.087,0.789,0.148,1.189,0.174c0.034,0.002,0.068,0.004,0.103,0.006
	c0.074,0,0.148,0,0.222-0.002c0.189-0.007,0.378-0.02,0.566-0.044c0.079-0.018,0.158-0.035,0.235-0.057
	c0.032-0.009,0.063-0.02,0.094-0.03c0.014-0.006,0.028-0.013,0.04-0.018c0.012-0.006,0.024-0.013,0.036-0.019
	c0.014-0.01,0.028-0.02,0.041-0.03l0,0c0.019-0.037,0.039-0.074,0.054-0.112c0.012-0.076,0.021-0.153,0.022-0.23
	c0-0.014,0-0.017,0.001-0.027c-0.03-0.21-0.083-0.418-0.161-0.617c-0.019-0.048-0.083-0.189-0.104-0.238
	c-0.041-0.078-0.081-0.156-0.126-0.232c-0.189-0.316-0.402-0.618-0.629-0.909c-0.241,0.217-0.558,0.376-0.828,0.459
	c-0.25,0.077-0.5,0.156-0.747,0.244c-0.022,0.008-0.031,0.011-0.048,0.017c-0.1,0.039-0.199,0.079-0.297,0.12
	c-0.182,0.077-0.362,0.157-0.538,0.247c-0.067,0.034-0.236,0.133-0.323,0.182C196.713,179.88,196.642,179.924,196.578,179.977z
	 M227.273,181.385c-1.365-2.478,2.774-3.901,4.413-4.402c0.195-0.06,0.435-0.083,0.673-0.064c0.17-0.292,0.471-0.546,0.715-0.665
	c0.639-0.311,1.472-0.317,1.973,0.235c1.065,1.175,2.703,3.249,1.676,4.919c-0.998,1.624-3.034,1.951-4.794,1.886
	c-0.911-0.034-1.85-0.213-2.702-0.539C228.535,182.492,227.65,182.069,227.273,181.385z M234.079,180.822
	c0.021-0.035,0.028-0.047,0.001-0.002C234.079,180.82,234.079,180.822,234.079,180.822z M230.075,179.977
	c-0.021,0.017-0.04,0.034-0.06,0.051c-0.017,0.019-0.033,0.039-0.05,0.059c-0.005,0.011-0.01,0.023-0.016,0.034v0.001
	c0.002,0.008,0.004,0.01,0.007,0.02c0.001,0.003,0.001,0.004,0.002,0.007c0.032,0.05,0.065,0.099,0.104,0.144
	c0.005,0.006,0.006,0.007,0.01,0.013c0.073,0.062,0.149,0.118,0.229,0.171c0.071,0.047,0.146,0.09,0.22,0.132
	c0.025,0.012,0.05,0.024,0.076,0.035c0.181,0.08,0.366,0.151,0.554,0.211c0.091,0.029,0.183,0.058,0.275,0.083
	c0.017,0.005,0.034,0.009,0.051,0.014c0.392,0.087,0.789,0.148,1.189,0.174c0.034,0.002,0.068,0.004,0.103,0.006
	c0.074,0,0.148,0,0.222-0.002c0.189-0.007,0.379-0.02,0.566-0.044c0.079-0.017,0.158-0.035,0.235-0.057
	c0.032-0.009,0.063-0.02,0.094-0.03c0.014-0.006,0.028-0.013,0.04-0.018c0.012-0.006,0.023-0.013,0.036-0.019
	c0.014-0.01,0.028-0.021,0.042-0.032c0.019-0.037,0.039-0.073,0.054-0.112c0.012-0.076,0.021-0.153,0.022-0.23
	c0-0.014,0.001-0.019,0.001-0.029c-0.031-0.21-0.084-0.416-0.16-0.615c-0.019-0.048-0.084-0.189-0.105-0.238
	c-0.041-0.078-0.081-0.156-0.125-0.232c-0.189-0.316-0.402-0.619-0.629-0.909c-0.241,0.218-0.558,0.376-0.829,0.459
	c-0.25,0.077-0.5,0.156-0.747,0.244c-0.022,0.008-0.031,0.011-0.048,0.017c-0.1,0.039-0.199,0.079-0.297,0.12
	c-0.182,0.077-0.362,0.157-0.538,0.247c-0.067,0.034-0.237,0.133-0.324,0.183C230.21,179.88,230.14,179.924,230.075,179.977z
	 M436.727,279.151c0.729-0.305,1.481-0.599,2.196-0.953c-0.582-1.336-1.1-2.719-1.329-4.164
	c-1.903-11.936,9.174-20.587,19.679-23.143c11.995-2.919,25.87,0.478,30.838,12.935c5.771,14.473-0.423,28.561-15.225,33.542
	c-9.313,3.134-26.923,3.747-29.74-8.644c-0.205,0.045-0.395,0.063-0.537,0.037c-9.151-1.656-18.456,1.777-27.464-1.072
	c-1.078-0.341,0.688-1.282,0.974-1.374C423.033,284.116,430.024,281.958,436.727,279.151z M419.347,286.816
	c8.104,1.769,16.696-1.044,24.932,0.405c0.746-0.212,1.574-0.147,1.684,0.391c2.443,12.144,19.93,11.419,28.554,7.412
	c12.846-5.969,16.813-21.389,9.192-33.402c-6.406-10.1-19.434-12.451-30.06-7.874c-9.558,4.117-16.165,13.134-11.922,23.438
	c0.802,0.099,1.147,0.564-0.143,1.328C434.957,282.439,426.813,284.569,419.347,286.816z M461.589,263.482
	c4.586-2.831,7.313,1.09,7.678,5.31c0.155,1.794-2.484,2.489-3.748,3.146c-3.648,1.896-4.262,4.699-2.336,8.257
	c0.613,1.132,3.377,0.063,2.654-1.273c-3.576-6.604,5.974-4.842,6.384-10.2c0.582-7.612-6.926-10.023-12.55-6.551
	C458.002,263.202,460.405,264.212,461.589,263.482z M465.986,285.74c-0.537-0.53-1.304-0.57-1.976-0.242
	c-0.449,0.22-1.209,1.008-0.673,1.538c0.336,0.332,0.672,0.663,1.008,0.994c0.537,0.529,1.304,0.57,1.976,0.242
	c0.449-0.22,1.209-1.008,0.673-1.538C466.658,286.402,466.322,286.07,465.986,285.74z" fill="#151515"></path>
</svg>