<?xml version="1.0" standalone="no"?>
<svg version="1.1" id="Layer_1" xmlns="http://www.w3.org/2000/svg" xmlns:xlink="http://www.w3.org/1999/xlink" x="0px" y="0px" width="595.28px" height="595.28px" viewBox="0 0 595.28 595.28" enable-background="new 0 0 595.28 595.28" xml:space="preserve">
<path id="color_x5F_6" fill="#E83F30" d="M150.944,182.533l0.938,3.889c-16.132,3.894-34.666,14.707-39.703,30.084
	c-3.334,10.18-0.387,20.839,8.762,31.682c17.869,21.178,18.746,44.962,14.521,68.244c-0.428-0.167-0.874-0.295-1.35-0.338
	c-0.148-0.014-0.296-0.021-0.447-0.021c-0.843,0-1.636,0.211-2.331,0.58c4.213-22.654,3.571-45.712-13.451-65.886
	c-9.96-11.805-13.248-24.083-9.506-35.506C114.273,197.265,134.992,186.383,150.944,182.533z M125.642,354.567
	c0.508-1.774,1.026-3.567,1.553-5.389c2.181-7.533,4.423-15.3,6.267-23.174c-0.871-0.036-1.683-0.292-2.382-0.722
	c-0.223-0.137-0.42-0.308-0.618-0.477c-0.285,0.102-0.589,0.211-0.915,0.326c-1.816,7.787-4.037,15.479-6.195,22.934
	c-0.837,2.894-1.645,5.709-2.424,8.489c1.193,0.036,2.339,0.094,3.382,0.177C124.559,355.895,125.029,355.157,125.642,354.567z
	 M134.987,410.591c-0.375-0.396-0.747-0.796-1.117-1.204c-0.547-0.603-1.087-1.219-1.619-1.849
	c-8.043-9.515-14.135-22.005-10.886-36.628c0.218-0.981,0.471-1.988,0.711-2.984c0.519-2.155,1.074-4.34,1.676-6.569
	c-1.16,0.421-2.434,0.84-3.748,1.241c-0.1,0.03-0.196,0.062-0.296,0.092c-0.159,0.048-0.321,0.091-0.48,0.138
	c-0.636,2.438-1.242,4.853-1.768,7.216c-3.04,13.676,0.994,27.418,11.651,40.062c0.912,1.082,1.881,2.154,2.89,3.22
	c0.098,0.103,0.196,0.205,0.295,0.308c0.401,0.42,0.786,0.843,1.203,1.259c2.222,2.222,4.481,4.231,6.665,6.021
	c3.091,2.535,6.027,4.626,8.491,6.25v-4.884c-2.015-1.416-4.246-3.095-6.548-5.021C139.752,415.287,137.326,413.059,134.987,410.591
	z M484.756,217.674c-5.072,6.471-10.932,11.964-17.328,16.475c1.735,7.831,1.336,16.093-1.319,23.835
	c0.135-0.021,0.269-0.041,0.402-0.065c3.756-2.519,7.183-5.663,10.121-9.411c7.421-9.467,10.329-21.024,9.077-32.104
	C485.391,216.827,485.084,217.256,484.756,217.674z M433.256,177.304c1.428-1.822,2.92-3.564,4.467-5.231
	c-11.537,1.143-22.609,6.802-30.324,16.646c-2.938,3.748-5.174,7.826-6.723,12.074c0.008,0.138,0.022,0.271,0.032,0.406
	c6.728-4.327,14.452-6.674,22.284-6.952C425.662,188.331,429.075,182.638,433.256,177.304z M499.513,145.816
	c-16.119-0.286-32.196,4.153-46.021,13.042c0.816,11.572,5.342,21.642,13.696,28.192c8.357,6.55,19.216,8.54,30.648,6.569
	C503.167,178.071,503.639,161.399,499.513,145.816z M444.118,216.155c-2.306-1.808-5.643-1.404-7.449,0.902l-6.253,7.976
	l-6.863,8.756l-1.619,2.065l-5.995,7.648c-1.558,1.987-1.464,4.732,0.063,6.611c0.245,0.302,0.52,0.587,0.839,0.838
	c2.282,1.789,5.566,1.405,7.388-0.838c0.019-0.023,0.043-0.041,0.062-0.064l8.446-10.775l2.682-3.42l3.313-4.225l6.291-8.025
	C446.827,221.297,446.424,217.961,444.118,216.155z M111.269,297.91c-2-0.241-3.735,0.898-6.106,0.622
	c-0.542-0.064-0.957-0.122-1.28-0.175c-1.65-0.272-0.958-0.429-2.848-0.656c-0.095-0.013-0.19-0.024-0.28-0.031l-0.028-0.003
	c-7.308-0.259-8.555,4.373-8.707,7.525c-0.118,2.461,1.103,5.18,1.882,6.17c0.211,0.266,0.429,0.521,0.652,0.766
	c0.426,0.461,0.881,0.861,1.347,1.229c0.106,0.084,0.21,0.18,0.318,0.258c0.013,0.012,0.024,0.021,0.042,0.029
	c1.229,0.895,2.548,1.459,3.803,1.648c0.668,0.105,1.314,0.104,1.922-0.008c-0.36-0.117-0.701-0.295-1.002-0.527
	c-0.317-0.24-0.59-0.545-0.805-0.904c-0.495-0.82-0.494-1.854,0.266-2.5c1.018-0.865,2.596-0.59,3.499,0.281
	c0.474,0.457,0.787,1.059,0.956,1.703c0.947-1.496,1.061-3.605,0.371-5.764c-0.473-0.201,4.41,0.23,4.799,0.277l0.057,0.008h0.004
	c1.492,0.162,2.906-0.373,3.922-1.348c0.809-0.775,1.368-1.83,1.516-3.039c0.197-1.641-0.415-3.188-1.516-4.24
	C113.313,298.526,112.355,298.042,111.269,297.91z M100.618,444.979c-0.836-0.344-2.497-2.071-3.11-2.729
	c-0.147-0.158-0.235-0.256-0.235-0.256l-4.74-0.041l-0.043,0.395l-0.695,6.422l-0.021,0.195l14.151,0.123
	c0,0,1.262,0.041,2.19-0.318c0.551-0.213,0.986-0.567,0.969-1.156C109.015,445.184,102.819,445.881,100.618,444.979z
	 M62.618,444.979c-0.759-0.312-2.195-1.762-2.913-2.52c-0.263-0.277-0.433-0.465-0.433-0.465l-2.896-0.025l-1.649-0.014
	l-0.195-0.002l-0.082,0.756l-0.017,0.16l-0.598,5.521l-0.041,0.379l-0.021,0.195l14.151,0.123c0,0,1.262,0.041,2.19-0.318
	c0.551-0.213,0.986-0.567,0.969-1.156C71.015,445.184,64.819,445.881,62.618,444.979z"></path>
<path id="color_x5F_5" fill="#ffceaf" d="M110.422,312.285c0.01-0.104,0.02-0.207,0.033-0.311c0.175-1.449,0.041-2.846-0.33-4.117
	l-0.057-0.008c-0.389-0.047-5.271-0.479-4.799-0.277c0.689,2.158,0.576,4.268-0.371,5.764c-0.169-0.645-0.482-1.246-0.956-1.703
	c-0.903-0.871-2.481-1.146-3.499-0.281c-0.76,0.646-0.761,1.68-0.266,2.5c0.215,0.359,0.487,0.664,0.805,0.904
	c0.301,0.232,0.642,0.41,1.002,0.527c-0.607,0.111-1.254,0.113-1.922,0.008c-1.255-0.189-2.574-0.754-3.803-1.648
	c-0.018-0.008-0.029-0.018-0.042-0.029c-0.108-0.078-0.212-0.174-0.318-0.258l-3.243,7.818c0.003,0,0.006,0,0.009,0
	c0.035,0,0.068-0.004,0.104-0.004c0.051,0,0.1,0.004,0.15,0.004c3.68,0.033,7.014,1.311,9.463,3.984
	c0.023,0.025,0.045,0.055,0.068,0.08l0.274,0.066l0.929-5.113c1.275,0.637,2.498,1.061,3.488,1.18
	c3.162,0.383,3.088-2.398,3.13-5.918c0.339-0.021,0.644-0.08,0.864-0.174c0.992-0.416,0.039-1.344-0.455-2.52
	C110.609,312.59,110.52,312.432,110.422,312.285z M108.205,312.902c-0.268-0.031-0.454-0.412-0.412-0.854
	c0.042-0.439,0.295-0.773,0.566-0.744c0.27,0.029,0.457,0.412,0.414,0.852C108.729,312.596,108.477,312.932,108.205,312.902z
	 M134.051,358.145c0,2.748-2.229,4.975-4.975,4.975c-0.949,0-1.832-0.273-2.586-0.736c-0.613-0.377-1.139-0.879-1.541-1.477
	c0.068-0.025,0.14-0.053,0.207-0.08c-0.368-0.572-0.623-1.225-0.731-1.926c-0.038-0.246-0.06-0.498-0.06-0.756
	c0-0.484,0.072-0.951,0.202-1.393c-0.084-0.008-0.171-0.014-0.257-0.02c0.248-0.838,0.718-1.575,1.331-2.165
	c0.893-0.858,2.098-1.396,3.435-1.396c0.151,0,0.299,0.008,0.447,0.021C132.061,353.42,134.051,355.549,134.051,358.145z
	 M138.641,321.045c0,2.748-2.229,4.975-4.975,4.975c-0.069,0-0.136-0.012-0.204-0.015c-0.871-0.036-1.683-0.292-2.382-0.722
	c-0.223-0.137-0.42-0.308-0.618-0.477c-0.249-0.212-0.471-0.447-0.674-0.703c-0.081-0.102-0.177-0.189-0.25-0.297
	c0.068-0.025,0.14-0.053,0.207-0.08c-0.498-0.773-0.791-1.691-0.791-2.682c0-0.228,0.019-0.451,0.049-0.67
	c0.034-0.247,0.084-0.488,0.153-0.723c-0.084-0.008-0.171-0.014-0.257-0.02c0.382-1.289,1.271-2.359,2.435-2.98
	c0.695-0.369,1.488-0.58,2.331-0.58c0.151,0,0.299,0.008,0.447,0.021c0.476,0.043,0.922,0.171,1.35,0.338
	C137.317,317.153,138.641,318.936,138.641,321.045z"></path>
<path id="color_x5F_4" fill="#788fdb" d="M208.091,167.421l-4.772,3.637c-5-6.56-12.896-10.337-21.13-10.131
	c-7.086,0.188-13.61,3.185-18.371,8.439l-4.446-4.028c5.871-6.481,13.918-10.177,22.66-10.409
	C192.181,154.659,201.926,159.332,208.091,167.421z M531.89,386.439c-12.327-5.441-24.778,5.912-24.778,5.912
	s-0.328-5.355,8.035-13.232c8.362-7.877,36.379-27.053,18.887-33.09c-17.492-6.035-31.266,9.371-33.388,21.908
	c-2.123,12.535,1.603-16.971-9.126-13.912c-9.056,2.583-12.717,24.303-12.654,32.288c-3.131-6.899-9.072-17.368-12.154-5.663
	c-4.305,16.355,6.461,33.967,6.461,33.967s-15.511-18.973-15.371-10.848c8.23,2.911,14.283,10.329,15.065,19.252
	c2.567-5.682,8.321-9.646,15.026-9.646c6.618,0,12.311,3.863,14.924,9.421c9.537-3.202,18.471-7.625,16.064-12.509
	c-3.205-6.5-10.422-5.695-14.893-4.432C514.398,401.959,541.969,390.891,531.89,386.439z M142.126,403.781
	c1.001-0.133,2.015-0.225,3.053-0.225c0.365,0,0.728,0.011,1.088,0.027C145.96,401.684,144.276,402.198,142.126,403.781z
	 M125.247,386.938c0.033-4.159-0.946-12.045-3.17-19.013c-0.24,0.996-0.493,2.003-0.711,2.984
	c-3.249,14.623,2.843,27.113,10.886,36.628c0.966-0.656,1.981-1.243,3.046-1.749c2.38-6.587,4.417-15.73,2.104-24.516
	C134.319,369.568,128.377,380.038,125.247,386.938z M117.461,370.043c0.525-2.363,1.131-4.777,1.768-7.216
	c-0.653,0.192-1.309,0.385-1.968,0.565c-5.012,1.371-9.937,2.314-11.099,1.934c-0.486-0.161-0.907-0.399-1.294-0.67
	c-0.722,5.332-0.357,9.813-1.227,4.916c-0.589,3.623-1.111,6.538-1.384,8.029c-0.041,0.219-0.077,0.418-0.106,0.572
	c-0.043,0.236-0.073,0.393-0.087,0.469c1.224,3.223,2.473,6.672,3.598,10.057c0.865,2.602,1.656,5.162,2.308,7.541
	c1.208,4.42,1.929,8.215,1.728,10.5c0.138,0.605,0.219,1.24,0.223,1.896c0.004,0.896-0.612,3.067-1.571,5.896
	c6.29,0.359,11.622,4.203,14.065,9.611c0.48-5.479,2.961-10.385,6.698-14.04C118.455,397.461,114.421,383.719,117.461,370.043z
	 M112.593,354.648c-2.477-0.706-4.181,0.325-5.367,2.172c1.319-0.112,4.764-0.273,8.561-0.309
	C114.805,355.631,113.745,354.977,112.593,354.648z M74.461,394.539c0.176-2.795,0.419-5.669,0.693-8.459
	c-0.974,0.234-1.953,0.551-2.932,0.982C68.262,388.812,70.12,391.583,74.461,394.539z M85.231,410.91
	c-1.803,3.658,2.757,7.057,9.166,9.879c0.517-0.656,1.081-1.27,1.692-1.84c0.955-5.148,1.719-9.223,1.714-10.256
	c-0.004-0.945,0.147-1.846,0.414-2.676C93.811,405.132,88.012,405.271,85.231,410.91z M89.457,390.381
	c-0.667,1.859-1.364,3.736-2.08,5.58c-0.6,1.545-1.213,3.062-1.829,4.523c4.555,2.084,9.245,3.962,12.748,5.303
	c0.381-1.075,0.961-2.021,1.696-2.758c-1.877-1.977-3.891-4.314-5.915-6.789C92.523,394.34,90.965,392.357,89.457,390.381z
	 M70.079,346.652c-11.92,4.114-2.706,14.329,7.02,22.912c0.702-7.91,1.591-18.763,1.828-24.227
	C76.12,345.203,73.159,345.59,70.079,346.652z M467.428,234.149c6.396-4.511,12.256-10.004,17.328-16.475
	c0.328-0.418,0.635-0.847,0.953-1.27c5.35-7.099,9.387-14.789,12.128-22.785c-11.433,1.971-22.291-0.02-30.648-6.569
	c-8.354-6.551-12.88-16.62-13.696-28.192c-5.689,3.657-10.997,8.068-15.77,13.215c-1.547,1.667-3.039,3.41-4.467,5.231
	c-4.181,5.334-7.594,11.026-10.264,16.943c-0.834,1.849-1.602,3.719-2.29,5.608c0.552,9.849,3.776,18.642,9.714,25.177l6.253-7.976
	c1.807-2.307,5.144-2.71,7.449-0.902c2.306,1.807,2.709,5.143,0.903,7.449l-6.291,8.025c7.835,4.371,17.279,5.465,27.124,3.62
	C466.385,234.894,466.904,234.519,467.428,234.149z M182.902,168.349c-5.506,0.145-10.576,2.474-14.276,6.557l4.446,4.028
	c2.589-2.857,6.136-4.486,9.988-4.587c4.476-0.113,8.769,1.941,11.487,5.508l4.772-3.636
	C195.437,171.123,189.3,168.184,182.902,168.349z M183.651,180.625c-2.761,0.073-4.939,2.369-4.867,5.131
	c0.073,2.76,2.369,4.938,5.131,4.865c2.76-0.071,4.938-2.368,4.865-5.129C188.708,182.731,186.411,180.553,183.651,180.625z"></path>
<path id="color_x5F_3" fill="#b3a1a1" d="M484.413,441.477c0-1.314-0.323-2.553-0.886-3.646c-1.326-2.583-4.012-4.354-7.114-4.354
	h-3.51h-27.085c2.672-0.635,4.662-3.031,4.662-5.896v-25.129c2.567,0.042,5.025,0.508,7.32,1.318
	c8.23,2.911,14.283,10.329,15.065,19.252c2.567-5.682,8.321-9.646,15.026-9.646c6.618,0,12.311,3.863,14.924,9.421
	c0.977,2.075,1.537,4.38,1.537,6.817c0,1.309-0.171,2.574-0.469,3.789c3.057-2.197,6.652-3.699,10.555-4.279
	c1.168-0.174,2.359-0.273,3.579-0.273c0.397,0,0.794,0.014,1.192,0.031c11.039,0.531,20.107,8.402,22.332,18.766h-60.038
	C483.281,446.18,484.413,443.96,484.413,441.477z M148.655,427.58v-0.418c-2.464-1.624-5.4-3.715-8.491-6.25
	c-2.184-1.79-4.443-3.8-6.665-6.021c-0.417-0.416-0.801-0.839-1.203-1.259c-0.099-0.103-0.197-0.205-0.295-0.308
	c-1.009-1.065-1.978-2.138-2.89-3.22c-3.737,3.655-6.217,8.561-6.698,14.04c-2.443-5.408-7.776-9.252-14.065-9.611
	c-0.968,2.857-2.285,6.386-3.672,9.967c-3.122,8.061-6.581,16.346-7.169,17.75c0.613,0.657,2.274,2.385,3.11,2.729
	c2.201,0.902,8.396,0.205,8.466,2.635c0.017,0.589-0.417,0.943-0.969,1.156h9.021c-2.783-1.252-4.724-4.044-4.724-7.293
	c0-1.339,0.333-2.598,0.915-3.707c1.337-2.551,4.006-4.293,7.085-4.293h11.286h21.618
	C150.645,432.842,148.655,430.445,148.655,427.58z M134.987,410.591c2.339,2.468,4.765,4.696,7.121,6.667
	c2.302,1.926,4.533,3.604,6.548,5.021v-18.462c-0.784-0.118-1.581-0.195-2.388-0.232c-0.361-0.017-0.723-0.027-1.088-0.027
	c-1.038,0-2.052,0.092-3.053,0.225c-2.417,0.318-4.713,1.003-6.829,2.008c-1.065,0.506-2.08,1.093-3.046,1.749
	c0.532,0.63,1.072,1.246,1.619,1.849C134.24,409.795,134.612,410.195,134.987,410.591z M53.794,448.77l0.041-0.379
	c-0.03,0.128-0.071,0.25-0.098,0.379H53.794z M90.927,430.736c0,1.309,0.171,2.574,0.469,3.789
	c-3.057-2.197-6.652-3.699-10.555-4.279c-1.168-0.174-2.359-0.273-3.579-0.273c-0.397,0-0.794,0.014-1.192,0.031
	c-3.207,0.154-6.238,0.943-8.992,2.218c-2.579,3.909-5.189,7.619-7.372,10.237c0.718,0.758,2.154,2.208,2.913,2.52
	c2.201,0.902,8.396,0.205,8.466,2.635c0.017,0.589-0.417,0.943-0.969,1.156h21.679l0.695-6.422
	c0.354-5.381,1.847-13.881,3.161-21.025c0.149-0.812,0.296-1.604,0.439-2.373c-0.611,0.57-1.175,1.184-1.692,1.84
	C92.23,423.539,90.927,426.984,90.927,430.736z M495.309,290.538c0.741,0,1.341-0.6,1.341-1.341v-8.594
	c0-0.74-0.6-1.341-1.341-1.341c-0.74,0-1.341,0.601-1.341,1.341v8.594C493.968,289.938,494.568,290.538,495.309,290.538z
	 M495.309,321.689c0.741,0,1.341-0.6,1.341-1.342v-8.594c0-0.74-0.6-1.342-1.341-1.342c-0.74,0-1.341,0.602-1.341,1.342v8.594
	C493.968,321.09,494.568,321.689,495.309,321.689z M475.437,301.816h8.594c0.74,0,1.341-0.6,1.341-1.342
	c0-0.74-0.601-1.34-1.341-1.34h-8.594c-0.74,0-1.342,0.6-1.342,1.34C474.095,301.217,474.696,301.816,475.437,301.816z
	 M505.247,300.475c0,0.742,0.601,1.342,1.341,1.342h8.594c0.741,0,1.342-0.6,1.342-1.342c0-0.74-0.601-1.34-1.342-1.34h-8.594
	C505.848,299.135,505.247,299.734,505.247,300.475z M486.386,293.45c0.262,0.262,0.604,0.393,0.948,0.393
	c0.343,0,0.686-0.131,0.948-0.393c0.524-0.525,0.524-1.373,0-1.897l-6.078-6.077c-0.523-0.524-1.372-0.524-1.896,0
	c-0.523,0.523-0.523,1.373,0,1.896L486.386,293.45z M508.413,315.477c0.262,0.262,0.605,0.393,0.948,0.393s0.687-0.131,0.948-0.393
	c0.524-0.523,0.524-1.373,0-1.896l-6.076-6.078c-0.525-0.523-1.374-0.523-1.898,0c-0.523,0.525-0.523,1.373,0,1.896L508.413,315.477
	z M486.386,307.502l-6.078,6.078c-0.523,0.523-0.523,1.373,0,1.896c0.263,0.262,0.605,0.393,0.949,0.393s0.687-0.131,0.947-0.393
	l6.078-6.078c0.524-0.523,0.524-1.371,0-1.896C487.759,306.979,486.909,306.979,486.386,307.502z M503.284,293.842
	c0.343,0,0.687-0.131,0.949-0.393l6.076-6.078c0.524-0.523,0.524-1.373,0-1.896c-0.523-0.524-1.373-0.524-1.896,0l-6.078,6.077
	c-0.523,0.524-0.523,1.372,0,1.897C502.598,293.711,502.94,293.842,503.284,293.842z M311.309,171.262
	c-0.74,0-1.341,0.601-1.341,1.341v8.594c0,0.741,0.601,1.341,1.341,1.341c0.741,0,1.341-0.6,1.341-1.341v-8.594
	C312.649,171.863,312.05,171.262,311.309,171.262z M311.309,202.413c-0.74,0-1.341,0.601-1.341,1.342v8.594
	c0,0.741,0.601,1.342,1.341,1.342c0.741,0,1.341-0.601,1.341-1.342v-8.594C312.649,203.013,312.05,202.413,311.309,202.413z
	 M301.371,192.475c0-0.74-0.601-1.341-1.341-1.341h-8.594c-0.74,0-1.342,0.601-1.342,1.341c0,0.741,0.602,1.342,1.342,1.342h8.594
	C300.771,193.817,301.371,193.216,301.371,192.475z M331.182,191.134h-8.594c-0.74,0-1.341,0.601-1.341,1.341
	c0,0.741,0.601,1.342,1.341,1.342h8.594c0.741,0,1.342-0.601,1.342-1.342C332.523,191.735,331.923,191.134,331.182,191.134z
	 M298.204,177.475c-0.523-0.524-1.372-0.524-1.896,0c-0.523,0.523-0.523,1.373,0,1.896l6.078,6.078
	c0.262,0.262,0.604,0.393,0.948,0.393c0.343,0,0.686-0.131,0.948-0.393c0.524-0.525,0.524-1.373,0-1.897L298.204,177.475z
	 M320.233,199.502c-0.525-0.523-1.374-0.523-1.898,0c-0.523,0.524-0.523,1.373,0,1.896l6.078,6.078
	c0.262,0.262,0.605,0.393,0.948,0.393s0.687-0.131,0.948-0.393c0.524-0.524,0.524-1.373,0-1.897L320.233,199.502z M302.386,199.502
	l-6.078,6.077c-0.523,0.524-0.523,1.373,0,1.897c0.263,0.262,0.605,0.393,0.949,0.393s0.687-0.131,0.947-0.393l6.078-6.078
	c0.524-0.523,0.524-1.372,0-1.896C303.759,198.979,302.909,198.979,302.386,199.502z M319.284,185.842
	c0.343,0,0.687-0.131,0.949-0.393l6.076-6.078c0.524-0.523,0.524-1.373,0-1.896c-0.523-0.524-1.373-0.524-1.896,0l-6.078,6.077
	c-0.523,0.524-0.523,1.372,0,1.897C318.598,185.711,318.94,185.842,319.284,185.842z M75.488,254.512c0.741,0,1.341-0.6,1.341-1.341
	v-8.594c0-0.74-0.6-1.341-1.341-1.341c-0.74,0-1.341,0.601-1.341,1.341v8.594C74.147,253.913,74.748,254.512,75.488,254.512z
	 M75.488,285.665c0.741,0,1.341-0.601,1.341-1.342v-8.594c0-0.741-0.6-1.342-1.341-1.342c-0.74,0-1.341,0.601-1.341,1.342v8.594
	C74.147,285.064,74.748,285.665,75.488,285.665z M65.551,264.45c0-0.74-0.601-1.341-1.341-1.341h-8.594
	c-0.74,0-1.342,0.601-1.342,1.341c0,0.741,0.602,1.342,1.342,1.342h8.594C64.95,265.792,65.551,265.191,65.551,264.45z
	 M95.361,263.109h-8.594c-0.74,0-1.341,0.601-1.341,1.341c0,0.741,0.601,1.342,1.341,1.342h8.594c0.741,0,1.342-0.601,1.342-1.342
	C96.703,263.709,96.103,263.109,95.361,263.109z M66.565,257.424c0.262,0.262,0.604,0.393,0.948,0.393
	c0.343,0,0.686-0.131,0.948-0.393c0.524-0.525,0.524-1.373,0-1.897l-6.078-6.077c-0.523-0.524-1.372-0.524-1.896,0
	c-0.523,0.523-0.523,1.373,0,1.896L66.565,257.424z M88.593,279.452c0.262,0.262,0.605,0.393,0.948,0.393s0.687-0.131,0.948-0.393
	c0.524-0.524,0.524-1.373,0-1.897l-6.076-6.077c-0.525-0.523-1.374-0.523-1.898,0c-0.523,0.524-0.523,1.373,0,1.896L88.593,279.452z
	 M66.565,271.477l-6.078,6.077c-0.523,0.524-0.523,1.373,0,1.897c0.263,0.262,0.605,0.393,0.949,0.393s0.687-0.131,0.947-0.393
	l6.078-6.078c0.524-0.523,0.524-1.372,0-1.896C67.938,270.954,67.089,270.954,66.565,271.477z M83.464,257.817
	c0.343,0,0.687-0.131,0.949-0.393l6.076-6.078c0.524-0.523,0.524-1.373,0-1.896c-0.523-0.524-1.373-0.524-1.896,0l-6.078,6.077
	c-0.523,0.524-0.523,1.372,0,1.897C82.777,257.686,83.12,257.817,83.464,257.817z"></path>
<path id="color_x5F_2" fill="#3327d1" d="M436.381,250.114c-0.277,7.027-5.072,12.881-11.572,14.737
	c1.033,2.678,1.604,5.585,1.604,8.626c0,13.255-10.745,24-24,24c-0.841,0-1.673-0.044-2.491-0.128
	c-1.38,5.541-5.636,9.935-11.102,11.499c2.275,3.669,3.593,7.994,3.593,12.629c0,13.256-10.745,24-24,24s-24-10.744-24-24
	c0-13.254,10.745-24,24-24c0.177,0,0.352,0.009,0.528,0.013c-0.333-1.285-0.528-2.625-0.528-4.013
	c0-6.909,4.388-12.777,10.521-15.017c-0.34-1.608-0.521-3.274-0.521-4.983c0-11.368,7.905-20.882,18.517-23.363H163.175v162.092
	v2.179h1.54h265.204h7.042v-7.848V250.114H436.381z M318.413,277.477c4.418,0,8,3.582,8,8s-3.582,8-8,8s-8-3.582-8-8
	S313.995,277.477,318.413,277.477z M297.913,321.977c3.037,0,5.5,2.463,5.5,5.5s-2.463,5.5-5.5,5.5s-5.5-2.463-5.5-5.5
	S294.876,321.977,297.913,321.977z M208.446,412.291c2.739-12.754,13.897-22.438,27.48-23.094c0.488-0.023,0.977-0.037,1.471-0.037
	c1.498,0,2.963,0.125,4.399,0.34c4.804,0.711,9.227,2.563,12.989,5.264c-0.363-1.496-0.578-3.057-0.578-4.666
	c0-11.031,9.068-19.975,20.254-19.975c8.249,0,15.333,4.879,18.492,11.865c1.248-14.191,13.303-25.334,28.01-25.334
	c15.544,0,28.143,12.432,28.143,27.762c0,3.332-0.629,6.512-1.718,9.467c0.563-0.047,1.134-0.086,1.718-0.086
	c10.475,0,18.99,8.23,19.307,18.494H208.446z M397.413,373.977c-3.037,0-5.5-2.463-5.5-5.5s2.463-5.5,5.5-5.5s5.5,2.463,5.5,5.5
	S400.45,373.977,397.413,373.977z M129.789,324.104c0.203,0.256,0.425,0.491,0.674,0.703c-0.285,0.102-0.589,0.211-0.915,0.326
	c-5.228,1.863-15.396,5.445-23.425,8.195c0.276,1.523,0.428,3.194,0.428,5.029v4.754c0,3.18-0.159,12.992,0.131,13.771
	c0.071-0.018,0.266-0.039,0.544-0.063c1.319-0.112,4.764-0.273,8.561-0.309c0.488-0.005,0.979-0.008,1.475-0.008
	c0.817,0,1.638,0.008,2.448,0.021c0.411,0.008,0.817,0.018,1.22,0.03c1.193,0.036,2.339,0.094,3.382,0.177
	c0.086,0.006,0.173,0.012,0.257,0.02c-0.13,0.441-0.202,0.908-0.202,1.393c0,0.258,0.021,0.51,0.06,0.756
	c0.108,0.701,0.363,1.354,0.731,1.926c-0.067,0.027-0.139,0.055-0.207,0.08c-0.382,0.15-0.782,0.301-1.196,0.45
	c-1.16,0.421-2.434,0.84-3.748,1.241c-0.1,0.03-0.196,0.062-0.296,0.092c-0.159,0.048-0.321,0.091-0.48,0.138
	c-0.653,0.192-1.309,0.385-1.968,0.565c-5.012,1.371-9.937,2.314-11.099,1.934c-0.486-0.161-0.907-0.399-1.294-0.67
	c-0.139-0.098-0.29-0.184-0.415-0.293c-0.273,1.836-0.549,3.592-0.812,5.209c-0.589,3.623-1.111,6.538-1.384,8.029
	c-0.041,0.219-0.077,0.418-0.106,0.572c-0.043,0.236-0.073,0.393-0.087,0.469c-0.059-0.154-0.118-0.316-0.176-0.469
	c-0.063,0.338-0.099,0.523-0.099,0.523H88.595H88.33h-0.512h-6.77h-0.265H76.23h-0.165c0,0,0.438-3.553,0.976-8.594
	c0.002,0.016,0.004,0.029,0.006,0.045c0.017-0.189,0.035-0.391,0.052-0.584c0.702-7.91,1.591-18.763,1.828-24.227
	c0.039-0.895,0.062-1.659,0.062-2.227v-4.754c0-4.162,0.755-7.512,2.061-10.111c1.715-3.418,4.382-5.535,7.546-6.486
	c1.285-0.385,2.652-0.576,4.07-0.586c0.035,0,0.068-0.004,0.104-0.004c0.051,0,0.1,0.004,0.15,0.004
	c3.68,0.033,7.014,1.311,9.463,3.984c0.023,0.025,0.045,0.055,0.068,0.08c0.358,0.397,0.696,0.826,1.015,1.285
	c8.166-1.963,19.861-4.871,25.539-6.148c-0.031,0.219-0.049,0.442-0.049,0.67c0,0.99,0.293,1.908,0.791,2.682
	c-0.067,0.027-0.139,0.055-0.207,0.08C129.612,323.914,129.708,324.002,129.789,324.104z"></path>
<path id="color_x5F_1" fill="#212121" d="M484.413,441.477c0,2.483-1.132,4.703-2.908,6.17c-1.383,1.143-3.157,1.83-5.092,1.83h-356
	c-1.169,0-2.275-0.257-3.276-0.707c-2.783-1.252-4.724-4.044-4.724-7.293c0-1.339,0.333-2.598,0.915-3.707
	c1.337-2.551,4.006-4.293,7.085-4.293h11.286h21.618c-2.672-0.635-4.662-3.031-4.662-5.896v-0.418v-4.884v-18.462V241.919
	c0-3.35,2.715-6.065,6.065-6.065h257.332c-4.577,2.815-7.64,7.855-7.64,13.623c0,0.03,0.005,0.06,0.005,0.09
	c-0.662-0.055-1.329-0.09-2.005-0.09c-1.888,0-3.722,0.225-5.483,0.637H163.175v162.092v2.179h1.54h265.204h7.042v-7.848V250.114
	h-0.579c0.009-0.213,0.032-0.422,0.032-0.637c0-3.878-1.381-7.433-3.677-10.203l2.682-3.42h8.997c3.35,0,6.065,2.716,6.065,6.065
	v160.532v25.129c0,2.865-1.99,5.262-4.662,5.896h27.085h3.51c3.103,0,5.788,1.771,7.114,4.354
	C484.09,438.924,484.413,440.162,484.413,441.477z M54.433,442.869l0.017-0.16c-0.023,0.064-0.037,0.102-0.037,0.102
	S54.42,442.833,54.433,442.869z M107.97,396.24c-0.651-2.379-1.442-4.939-2.308-7.541c-1.125-3.385-2.374-6.834-3.598-10.057
	c-0.059-0.154-0.118-0.316-0.176-0.469c-0.063,0.338-0.099,0.523-0.099,0.523H88.595H88.33h-0.512h-6.77h-0.265H76.23h-0.165h-0.099
	c-0.279,2.301-0.559,4.807-0.812,7.383c-0.274,2.79-0.517,5.664-0.693,8.459c-0.202,3.197-0.316,6.289-0.292,9.027
	c-2.439-0.012-4.989,1.596-6.382,4.285c-1.674,3.238-11.207,29.072-13.06,34.104l1.649,0.014l2.896,0.025
	c0,0,0.169,0.188,0.433,0.465c2.183-2.618,4.793-6.328,7.372-10.237c5.41-8.2,10.667-17.249,11.47-18.8
	c0.125-0.24,0.234-0.484,0.335-0.73c1.995-2.085,4.36-6.739,6.666-12.207c0.616-1.462,1.229-2.979,1.829-4.523
	c0.716-1.844,1.413-3.721,2.08-5.58c1.508,1.977,3.066,3.959,4.62,5.859c2.024,2.475,4.038,4.813,5.915,6.789
	c-0.735,0.736-1.315,1.683-1.696,2.758c-0.027,0.076-0.053,0.153-0.078,0.23c-0.267,0.83-0.418,1.73-0.414,2.676
	c0.005,1.033-0.76,5.107-1.714,10.256c-0.143,0.77-0.29,1.562-0.439,2.373c-1.314,7.145-2.808,15.645-3.161,21.025l0.043-0.395
	l4.74,0.041c0,0,0.088,0.098,0.235,0.256c0.588-1.404,4.047-9.689,7.169-17.75c1.387-3.581,2.704-7.109,3.672-9.967
	c0.959-2.829,1.575-5,1.571-5.896c-0.004-0.656-0.085-1.291-0.223-1.896C109.898,404.455,109.178,400.66,107.97,396.24z"></path>
</svg>